<?xml version="1.0" encoding="us-ascii" standalone="no"?><svg xmlns="http://www.w3.org/2000/svg" xmlns:xlink="http://www.w3.org/1999/xlink" contentStyleType="text/css" height="570px" preserveAspectRatio="none" style="width:3487px;height:570px;background:#FFFFFF;" version="1.1" viewBox="0 0 3487 570" width="3487px" zoomAndPan="magnify"><defs/><g><!--class Address--><g id="elem_Address"><rect codeLine="4" fill="#F1F1F1" height="194.6719" id="Address" rx="2.5" ry="2.5" style="stroke:#181818;stroke-width:0.5;" width="253" x="2284.5" y="369"/><ellipse cx="2378.25" cy="385" fill="#ADD1B2" rx="11" ry="11" style="stroke:#181818;stroke-width:1.0;"/><path d="M2382.3594,391 L2374.6406,391 L2374.6406,378.6094 L2382.3594,378.6094 L2382.3594,380.7656 L2377.0938,380.7656 L2377.0938,383.4375 L2381.8594,383.4375 L2381.8594,385.5938 L2377.0938,385.5938 L2377.0938,388.8438 L2382.3594,388.8438 L2382.3594,391 Z " fill="#000000"/><text fill="#000000" font-family="sans-serif" font-size="14" lengthAdjust="spacing" textLength="57" x="2398.75" y="389.8467">Address</text><line style="stroke:#181818;stroke-width:0.5;" x1="2285.5" x2="2536.5" y1="401" y2="401"/><ellipse cx="2295.5" cy="414.6484" fill="none" rx="3" ry="3" style="stroke:#038048;stroke-width:1.0;"/><text fill="#000000" font-family="sans-serif" font-size="14" lengthAdjust="spacing" textLength="153" x="2304.5" y="417.9951">contry: CountryAlpha2</text><ellipse cx="2295.5" cy="430.9453" fill="none" rx="3" ry="3" style="stroke:#038048;stroke-width:1.0;"/><text fill="#000000" font-family="sans-serif" font-size="14" lengthAdjust="spacing" textLength="82" x="2304.5" y="434.292">zipcode: str</text><ellipse cx="2295.5" cy="447.2422" fill="none" rx="3" ry="3" style="stroke:#038048;stroke-width:1.0;"/><text fill="#000000" font-family="sans-serif" font-size="14" lengthAdjust="spacing" textLength="62" x="2304.5" y="450.5889">state: str</text><ellipse cx="2295.5" cy="463.5391" fill="none" rx="3" ry="3" style="stroke:#038048;stroke-width:1.0;"/><text fill="#000000" font-family="sans-serif" font-size="14" lengthAdjust="spacing" textLength="50" x="2304.5" y="466.8857">city: str</text><ellipse cx="2295.5" cy="479.8359" fill="none" rx="3" ry="3" style="stroke:#038048;stroke-width:1.0;"/><text fill="#000000" font-family="sans-serif" font-size="14" lengthAdjust="spacing" textLength="68" x="2304.5" y="483.1826">street: str</text><ellipse cx="2295.5" cy="496.1328" fill="none" rx="3" ry="3" style="stroke:#038048;stroke-width:1.0;"/><text fill="#000000" font-family="sans-serif" font-size="14" lengthAdjust="spacing" textLength="125" x="2304.5" y="499.4795">neighborhood: str</text><ellipse cx="2295.5" cy="512.4297" fill="none" rx="3" ry="3" style="stroke:#038048;stroke-width:1.0;"/><text fill="#000000" font-family="sans-serif" font-size="14" lengthAdjust="spacing" textLength="144" x="2304.5" y="515.7764">address_number: str</text><ellipse cx="2295.5" cy="528.7266" fill="none" rx="3" ry="3" style="stroke:#038048;stroke-width:1.0;"/><text fill="#000000" font-family="sans-serif" font-size="14" lengthAdjust="spacing" textLength="227" x="2304.5" y="532.0732">address_complement: str | None</text><line style="stroke:#181818;stroke-width:0.5;" x1="2285.5" x2="2536.5" y1="539.375" y2="539.375"/><ellipse cx="2295.5" cy="553.0234" fill="#84BE84" rx="3" ry="3" style="stroke:#038048;stroke-width:1.0;"/><text fill="#000000" font-family="sans-serif" font-size="14" lengthAdjust="spacing" textLength="210" x="2304.5" y="556.3701">validate_code(value: str) -&gt; str</text></g><!--class Car--><g id="elem_Car"><rect codeLine="17" fill="#F1F1F1" height="129.4844" id="Car" rx="2.5" ry="2.5" style="stroke:#181818;stroke-width:0.5;" width="268" x="1276" y="402"/><ellipse cx="1394.25" cy="418" fill="#ADD1B2" rx="11" ry="11" style="stroke:#181818;stroke-width:1.0;"/><path d="M1398.3594,424 L1390.6406,424 L1390.6406,411.6094 L1398.3594,411.6094 L1398.3594,413.7656 L1393.0938,413.7656 L1393.0938,416.4375 L1397.8594,416.4375 L1397.8594,418.5938 L1393.0938,418.5938 L1393.0938,421.8438 L1398.3594,421.8438 L1398.3594,424 Z " fill="#000000"/><text fill="#000000" font-family="sans-serif" font-size="14" lengthAdjust="spacing" textLength="23" x="1414.75" y="422.8467">Car</text><line style="stroke:#181818;stroke-width:0.5;" x1="1277" x2="1543" y1="434" y2="434"/><ellipse cx="1287" cy="447.6484" fill="none" rx="3" ry="3" style="stroke:#038048;stroke-width:1.0;"/><text fill="#000000" font-family="sans-serif" font-size="14" lengthAdjust="spacing" textLength="65" x="1296" y="450.9951">make: str</text><ellipse cx="1287" cy="463.9453" fill="none" rx="3" ry="3" style="stroke:#038048;stroke-width:1.0;"/><text fill="#000000" font-family="sans-serif" font-size="14" lengthAdjust="spacing" textLength="70" x="1296" y="467.292">model: str</text><ellipse cx="1287" cy="480.2422" fill="none" rx="3" ry="3" style="stroke:#038048;stroke-width:1.0;"/><text fill="#000000" font-family="sans-serif" font-size="14" lengthAdjust="spacing" textLength="55" x="1296" y="483.5889">year: int</text><ellipse cx="1287" cy="496.5391" fill="none" rx="3" ry="3" style="stroke:#038048;stroke-width:1.0;"/><text fill="#000000" font-family="sans-serif" font-size="14" lengthAdjust="spacing" textLength="100" x="1296" y="499.8857">value: Decimal</text><line style="stroke:#181818;stroke-width:0.5;" x1="1277" x2="1543" y1="507.1875" y2="507.1875"/><ellipse cx="1287" cy="520.8359" fill="#84BE84" rx="3" ry="3" style="stroke:#038048;stroke-width:1.0;"/><text fill="#000000" font-family="sans-serif" font-size="14" lengthAdjust="spacing" textLength="242" x="1296" y="524.1826">year_must_be_valid(date: int) -&gt; int</text></g><!--class InsuranceInputDto--><g id="elem_InsuranceInputDto"><rect codeLine="26" fill="#F1F1F1" height="113.1875" id="InsuranceInputDto" rx="2.5" ry="2.5" style="stroke:#181818;stroke-width:0.5;" width="338" x="2573" y="410"/><ellipse cx="2673.75" cy="426" fill="#ADD1B2" rx="11" ry="11" style="stroke:#181818;stroke-width:1.0;"/><path d="M2677.8594,432 L2670.1406,432 L2670.1406,419.6094 L2677.8594,419.6094 L2677.8594,421.7656 L2672.5938,421.7656 L2672.5938,424.4375 L2677.3594,424.4375 L2677.3594,426.5938 L2672.5938,426.5938 L2672.5938,429.8438 L2677.8594,429.8438 L2677.8594,432 Z " fill="#000000"/><text fill="#000000" font-family="sans-serif" font-size="14" lengthAdjust="spacing" textLength="128" x="2694.25" y="430.8467">InsuranceInputDto</text><line style="stroke:#181818;stroke-width:0.5;" x1="2574" x2="2910" y1="442" y2="442"/><ellipse cx="2584" cy="455.6484" fill="none" rx="3" ry="3" style="stroke:#038048;stroke-width:1.0;"/><text fill="#000000" font-family="sans-serif" font-size="14" lengthAdjust="spacing" textLength="53" x="2593" y="458.9951">car: Car</text><ellipse cx="2584" cy="471.9453" fill="none" rx="3" ry="3" style="stroke:#038048;stroke-width:1.0;"/><text fill="#000000" font-family="sans-serif" font-size="14" lengthAdjust="spacing" textLength="224" x="2593" y="475.292">deductible_percentage: Decimal</text><ellipse cx="2584" cy="488.2422" fill="none" rx="3" ry="3" style="stroke:#038048;stroke-width:1.0;"/><text fill="#000000" font-family="sans-serif" font-size="14" lengthAdjust="spacing" textLength="138" x="2593" y="491.5889">broker_fee: Decimal</text><ellipse cx="2584" cy="504.5391" fill="none" rx="3" ry="3" style="stroke:#038048;stroke-width:1.0;"/><text fill="#000000" font-family="sans-serif" font-size="14" lengthAdjust="spacing" textLength="312" x="2593" y="507.8857">registration_location: Address | None = None</text><line style="stroke:#181818;stroke-width:0.5;" x1="2574" x2="2910" y1="515.1875" y2="515.1875"/></g><!--class InsuranceOutputDto--><g id="elem_InsuranceOutputDto"><rect codeLine="33" fill="#F1F1F1" height="145.7813" id="InsuranceOutputDto" rx="2.5" ry="2.5" style="stroke:#181818;stroke-width:0.5;" width="228" x="1874" y="393.5"/><ellipse cx="1913.75" cy="409.5" fill="#ADD1B2" rx="11" ry="11" style="stroke:#181818;stroke-width:1.0;"/><path d="M1917.8594,415.5 L1910.1406,415.5 L1910.1406,403.1094 L1917.8594,403.1094 L1917.8594,405.2656 L1912.5938,405.2656 L1912.5938,407.9375 L1917.3594,407.9375 L1917.3594,410.0938 L1912.5938,410.0938 L1912.5938,413.3438 L1917.8594,413.3438 L1917.8594,415.5 Z " fill="#000000"/><text fill="#000000" font-family="sans-serif" font-size="14" lengthAdjust="spacing" textLength="141" x="1933.25" y="414.3467">InsuranceOutputDto</text><line style="stroke:#181818;stroke-width:0.5;" x1="1875" x2="2101" y1="425.5" y2="425.5"/><ellipse cx="1885" cy="439.1484" fill="none" rx="3" ry="3" style="stroke:#038048;stroke-width:1.0;"/><text fill="#000000" font-family="sans-serif" font-size="14" lengthAdjust="spacing" textLength="64" x="1894" y="442.4951">id: UUID4</text><ellipse cx="1885" cy="455.4453" fill="none" rx="3" ry="3" style="stroke:#038048;stroke-width:1.0;"/><text fill="#000000" font-family="sans-serif" font-size="14" lengthAdjust="spacing" textLength="53" x="1894" y="458.792">car: Car</text><ellipse cx="1885" cy="471.7422" fill="none" rx="3" ry="3" style="stroke:#038048;stroke-width:1.0;"/><text fill="#000000" font-family="sans-serif" font-size="14" lengthAdjust="spacing" textLength="148" x="1894" y="475.0889">applied_rate: Decimal</text><ellipse cx="1885" cy="488.0391" fill="none" rx="3" ry="3" style="stroke:#038048;stroke-width:1.0;"/><text fill="#000000" font-family="sans-serif" font-size="14" lengthAdjust="spacing" textLength="137" x="1894" y="491.3857">policy_limit: Decimal</text><ellipse cx="1885" cy="504.3359" fill="none" rx="3" ry="3" style="stroke:#038048;stroke-width:1.0;"/><text fill="#000000" font-family="sans-serif" font-size="14" lengthAdjust="spacing" textLength="202" x="1894" y="507.6826">calculated_premium: Decimal</text><ellipse cx="1885" cy="520.6328" fill="none" rx="3" ry="3" style="stroke:#038048;stroke-width:1.0;"/><text fill="#000000" font-family="sans-serif" font-size="14" lengthAdjust="spacing" textLength="180" x="1894" y="523.9795">deductible_value: Decimal</text><line style="stroke:#181818;stroke-width:0.5;" x1="1875" x2="2101" y1="531.2813" y2="531.2813"/></g><!--class DynamicRateCalculationInterface--><g id="elem_DynamicRateCalculationInterface"><rect codeLine="49" fill="#F1F1F1" height="113.1875" id="DynamicRateCalculationInterface" rx="2.5" ry="2.5" style="stroke:#181818;stroke-width:0.5;" width="536" x="7" y="7"/><ellipse cx="157.75" cy="23" fill="#B4A7E5" rx="11" ry="11" style="stroke:#181818;stroke-width:1.0;"/><path d="M153.6719,18.7656 L153.6719,16.6094 L161.0625,16.6094 L161.0625,18.7656 L158.5938,18.7656 L158.5938,26.8438 L161.0625,26.8438 L161.0625,29 L153.6719,29 L153.6719,26.8438 L156.1406,26.8438 L156.1406,18.7656 L153.6719,18.7656 Z " fill="#000000"/><text fill="#000000" font-family="sans-serif" font-size="14" font-style="italic" lengthAdjust="spacing" textLength="226" x="178.25" y="27.8467">DynamicRateCalculationInterface</text><line style="stroke:#181818;stroke-width:0.5;" x1="8" x2="542" y1="39" y2="39"/><line style="stroke:#181818;stroke-width:0.5;" x1="8" x2="542" y1="47" y2="47"/><ellipse cx="18" cy="60.6484" fill="#84BE84" rx="3" ry="3" style="stroke:#038048;stroke-width:1.0;"/><text fill="#000000" font-family="sans-serif" font-size="14" lengthAdjust="spacing" textLength="304" x="27" y="63.9951">calculate_rate_per_year(car: Car) -&gt; Decimal</text><ellipse cx="18" cy="76.9453" fill="#84BE84" rx="3" ry="3" style="stroke:#038048;stroke-width:1.0;"/><text fill="#000000" font-family="sans-serif" font-size="14" lengthAdjust="spacing" textLength="311" x="27" y="80.292">calculate_rate_per_value(car: Car) -&gt; Decimal</text><ellipse cx="18" cy="93.2422" fill="#84BE84" rx="3" ry="3" style="stroke:#038048;stroke-width:1.0;"/><text fill="#000000" font-family="sans-serif" font-size="14" lengthAdjust="spacing" textLength="510" x="27" y="96.5889">calculate_rate(rate_per_year: Decimal,rate_per_value: Decimal) -&gt; Decimal</text><ellipse cx="18" cy="109.5391" fill="#84BE84" rx="3" ry="3" style="stroke:#038048;stroke-width:1.0;"/><text fill="#000000" font-family="sans-serif" font-size="14" lengthAdjust="spacing" textLength="199" x="27" y="112.8857">execute(car: Car) -&gt; Decimal</text></g><!--class DynamicRateCalculation--><g id="elem_DynamicRateCalculation"><rect codeLine="56" fill="#F1F1F1" height="113.1875" id="DynamicRateCalculation" rx="2.5" ry="2.5" style="stroke:#181818;stroke-width:0.5;" width="536" x="277" y="188"/><ellipse cx="457.75" cy="204" fill="#ADD1B2" rx="11" ry="11" style="stroke:#181818;stroke-width:1.0;"/><path d="M460.7188,209.6406 Q460.1406,209.9375 459.5,210.0781 Q458.8594,210.2344 458.1563,210.2344 Q455.6563,210.2344 454.3281,208.5938 Q453.0156,206.9375 453.0156,203.8125 Q453.0156,200.6875 454.3281,199.0313 Q455.6563,197.375 458.1563,197.375 Q458.8594,197.375 459.5,197.5313 Q460.1563,197.6875 460.7188,197.9844 L460.7188,200.7031 Q460.0938,200.125 459.5,199.8594 Q458.9063,199.5781 458.2813,199.5781 Q456.9375,199.5781 456.25,200.6563 Q455.5625,201.7188 455.5625,203.8125 Q455.5625,205.9063 456.25,206.9844 Q456.9375,208.0469 458.2813,208.0469 Q458.9063,208.0469 459.5,207.7813 Q460.0938,207.5 460.7188,206.9219 L460.7188,209.6406 Z " fill="#000000"/><text fill="#000000" font-family="sans-serif" font-size="14" lengthAdjust="spacing" textLength="166" x="478.25" y="208.8467">DynamicRateCalculation</text><line style="stroke:#181818;stroke-width:0.5;" x1="278" x2="812" y1="220" y2="220"/><line style="stroke:#181818;stroke-width:0.5;" x1="278" x2="812" y1="228" y2="228"/><ellipse cx="288" cy="241.6484" fill="#84BE84" rx="3" ry="3" style="stroke:#038048;stroke-width:1.0;"/><text fill="#000000" font-family="sans-serif" font-size="14" lengthAdjust="spacing" textLength="304" x="297" y="244.9951">calculate_rate_per_year(car: Car) -&gt; Decimal</text><ellipse cx="288" cy="257.9453" fill="#84BE84" rx="3" ry="3" style="stroke:#038048;stroke-width:1.0;"/><text fill="#000000" font-family="sans-serif" font-size="14" lengthAdjust="spacing" textLength="311" x="297" y="261.292">calculate_rate_per_value(car: Car) -&gt; Decimal</text><ellipse cx="288" cy="274.2422" fill="#84BE84" rx="3" ry="3" style="stroke:#038048;stroke-width:1.0;"/><text fill="#000000" font-family="sans-serif" font-size="14" lengthAdjust="spacing" textLength="510" x="297" y="277.5889">calculate_rate(rate_per_year: Decimal,rate_per_value: Decimal) -&gt; Decimal</text><ellipse cx="288" cy="290.5391" fill="#84BE84" rx="3" ry="3" style="stroke:#038048;stroke-width:1.0;"/><text fill="#000000" font-family="sans-serif" font-size="14" lengthAdjust="spacing" textLength="199" x="297" y="293.8857">execute(car: Car) -&gt; Decimal</text></g><!--class PremiumCalculationInterface--><g id="elem_PremiumCalculationInterface"><rect codeLine="68" fill="#F1F1F1" height="113.1875" id="PremiumCalculationInterface" rx="2.5" ry="2.5" style="stroke:#181818;stroke-width:0.5;" width="619" x="592.5" y="7"/><ellipse cx="799.75" cy="23" fill="#B4A7E5" rx="11" ry="11" style="stroke:#181818;stroke-width:1.0;"/><path d="M795.6719,18.7656 L795.6719,16.6094 L803.0625,16.6094 L803.0625,18.7656 L800.5938,18.7656 L800.5938,26.8438 L803.0625,26.8438 L803.0625,29 L795.6719,29 L795.6719,26.8438 L798.1406,26.8438 L798.1406,18.7656 L795.6719,18.7656 Z " fill="#000000"/><text fill="#000000" font-family="sans-serif" font-size="14" font-style="italic" lengthAdjust="spacing" textLength="196" x="820.25" y="27.8467">PremiumCalculationInterface</text><line style="stroke:#181818;stroke-width:0.5;" x1="593.5" x2="1210.5" y1="39" y2="39"/><line style="stroke:#181818;stroke-width:0.5;" x1="593.5" x2="1210.5" y1="47" y2="47"/><ellipse cx="603.5" cy="60.6484" fill="#84BE84" rx="3" ry="3" style="stroke:#038048;stroke-width:1.0;"/><text fill="#000000" font-family="sans-serif" font-size="14" lengthAdjust="spacing" textLength="431" x="612.5" y="63.9951">get_base_premium(car: Car, applied_rate: Decimal) -&gt; Decimal</text><ellipse cx="603.5" cy="76.9453" fill="#84BE84" rx="3" ry="3" style="stroke:#038048;stroke-width:1.0;"/><text fill="#000000" font-family="sans-serif" font-size="14" lengthAdjust="spacing" textLength="426" x="612.5" y="80.292">get_deductible_discount(base_premium: Decimal) -&gt; Decimal</text><ellipse cx="603.5" cy="93.2422" fill="#84BE84" rx="3" ry="3" style="stroke:#038048;stroke-width:1.0;"/><text fill="#000000" font-family="sans-serif" font-size="14" lengthAdjust="spacing" textLength="593" x="612.5" y="96.5889">get_final_premium(base_premium: Decimal, deductible_discount: Decimal) -&gt; Decimal</text><ellipse cx="603.5" cy="109.5391" fill="#84BE84" rx="3" ry="3" style="stroke:#038048;stroke-width:1.0;"/><text fill="#000000" font-family="sans-serif" font-size="14" lengthAdjust="spacing" textLength="355" x="612.5" y="112.8857">execute(car: Car, applied_rate: Decimal) -&gt; Decimal</text></g><!--class PremiumCalculation--><g id="elem_PremiumCalculation"><rect codeLine="75" fill="#F1F1F1" height="113.1875" id="PremiumCalculation" rx="2.5" ry="2.5" style="stroke:#181818;stroke-width:0.5;" width="619" x="919.5" y="188"/><ellipse cx="1156.75" cy="204" fill="#ADD1B2" rx="11" ry="11" style="stroke:#181818;stroke-width:1.0;"/><path d="M1159.7188,209.6406 Q1159.1406,209.9375 1158.5,210.0781 Q1157.8594,210.2344 1157.1563,210.2344 Q1154.6563,210.2344 1153.3281,208.5938 Q1152.0156,206.9375 1152.0156,203.8125 Q1152.0156,200.6875 1153.3281,199.0313 Q1154.6563,197.375 1157.1563,197.375 Q1157.8594,197.375 1158.5,197.5313 Q1159.1563,197.6875 1159.7188,197.9844 L1159.7188,200.7031 Q1159.0938,200.125 1158.5,199.8594 Q1157.9063,199.5781 1157.2813,199.5781 Q1155.9375,199.5781 1155.25,200.6563 Q1154.5625,201.7188 1154.5625,203.8125 Q1154.5625,205.9063 1155.25,206.9844 Q1155.9375,208.0469 1157.2813,208.0469 Q1157.9063,208.0469 1158.5,207.7813 Q1159.0938,207.5 1159.7188,206.9219 L1159.7188,209.6406 Z " fill="#000000"/><text fill="#000000" font-family="sans-serif" font-size="14" lengthAdjust="spacing" textLength="136" x="1177.25" y="208.8467">PremiumCalculation</text><line style="stroke:#181818;stroke-width:0.5;" x1="920.5" x2="1537.5" y1="220" y2="220"/><line style="stroke:#181818;stroke-width:0.5;" x1="920.5" x2="1537.5" y1="228" y2="228"/><ellipse cx="930.5" cy="241.6484" fill="#84BE84" rx="3" ry="3" style="stroke:#038048;stroke-width:1.0;"/><text fill="#000000" font-family="sans-serif" font-size="14" lengthAdjust="spacing" textLength="431" x="939.5" y="244.9951">get_base_premium(car: Car, applied_rate: Decimal) -&gt; Decimal</text><ellipse cx="930.5" cy="257.9453" fill="#84BE84" rx="3" ry="3" style="stroke:#038048;stroke-width:1.0;"/><text fill="#000000" font-family="sans-serif" font-size="14" lengthAdjust="spacing" textLength="426" x="939.5" y="261.292">get_deductible_discount(base_premium: Decimal) -&gt; Decimal</text><ellipse cx="930.5" cy="274.2422" fill="#84BE84" rx="3" ry="3" style="stroke:#038048;stroke-width:1.0;"/><text fill="#000000" font-family="sans-serif" font-size="14" lengthAdjust="spacing" textLength="593" x="939.5" y="277.5889">get_final_premium(base_premium: Decimal, deductible_discount: Decimal) -&gt; Decimal</text><ellipse cx="930.5" cy="290.5391" fill="#84BE84" rx="3" ry="3" style="stroke:#038048;stroke-width:1.0;"/><text fill="#000000" font-family="sans-serif" font-size="14" lengthAdjust="spacing" textLength="355" x="939.5" y="293.8857">execute(car: Car, applied_rate: Decimal) -&gt; Decimal</text></g><!--class PolicyCalculationInterface--><g id="elem_PolicyCalculationInterface"><rect codeLine="88" fill="#F1F1F1" height="113.1875" id="PolicyCalculationInterface" rx="2.5" ry="2.5" style="stroke:#181818;stroke-width:0.5;" width="619" x="1463.5" y="7"/><ellipse cx="1681.75" cy="23" fill="#B4A7E5" rx="11" ry="11" style="stroke:#181818;stroke-width:1.0;"/><path d="M1677.6719,18.7656 L1677.6719,16.6094 L1685.0625,16.6094 L1685.0625,18.7656 L1682.5938,18.7656 L1682.5938,26.8438 L1685.0625,26.8438 L1685.0625,29 L1677.6719,29 L1677.6719,26.8438 L1680.1406,26.8438 L1680.1406,18.7656 L1677.6719,18.7656 Z " fill="#000000"/><text fill="#000000" font-family="sans-serif" font-size="14" font-style="italic" lengthAdjust="spacing" textLength="174" x="1702.25" y="27.8467">PolicyCalculationInterface</text><line style="stroke:#181818;stroke-width:0.5;" x1="1464.5" x2="2081.5" y1="39" y2="39"/><line style="stroke:#181818;stroke-width:0.5;" x1="1464.5" x2="2081.5" y1="47" y2="47"/><ellipse cx="1474.5" cy="60.6484" fill="#84BE84" rx="3" ry="3" style="stroke:#038048;stroke-width:1.0;"/><text fill="#000000" font-family="sans-serif" font-size="14" lengthAdjust="spacing" textLength="287" x="1483.5" y="63.9951">get_base_policy_limit(car: Car) -&gt; Decimal</text><ellipse cx="1474.5" cy="76.9453" fill="#84BE84" rx="3" ry="3" style="stroke:#038048;stroke-width:1.0;"/><text fill="#000000" font-family="sans-serif" font-size="14" lengthAdjust="spacing" textLength="414" x="1483.5" y="80.292">get_deductible_value(base_policy_limit: Decimal) -&gt; Decimal</text><ellipse cx="1474.5" cy="93.2422" fill="#84BE84" rx="3" ry="3" style="stroke:#038048;stroke-width:1.0;"/><text fill="#000000" font-family="sans-serif" font-size="14" lengthAdjust="spacing" textLength="593" x="1483.5" y="96.5889">get_final_policy_limit(base_policy_limit: Decimal, deductible_value: Decimal) -&gt; Decimal</text><ellipse cx="1474.5" cy="109.5391" fill="#84BE84" rx="3" ry="3" style="stroke:#038048;stroke-width:1.0;"/><text fill="#000000" font-family="sans-serif" font-size="14" lengthAdjust="spacing" textLength="183" x="1483.5" y="112.8857">execute(car: Car) -&gt; Policy</text></g><!--class PolicyCalculation--><g id="elem_PolicyCalculation"><rect codeLine="95" fill="#F1F1F1" height="113.1875" id="PolicyCalculation" rx="2.5" ry="2.5" style="stroke:#181818;stroke-width:0.5;" width="619" x="1645.5" y="188"/><ellipse cx="1893.75" cy="204" fill="#ADD1B2" rx="11" ry="11" style="stroke:#181818;stroke-width:1.0;"/><path d="M1896.7188,209.6406 Q1896.1406,209.9375 1895.5,210.0781 Q1894.8594,210.2344 1894.1563,210.2344 Q1891.6563,210.2344 1890.3281,208.5938 Q1889.0156,206.9375 1889.0156,203.8125 Q1889.0156,200.6875 1890.3281,199.0313 Q1891.6563,197.375 1894.1563,197.375 Q1894.8594,197.375 1895.5,197.5313 Q1896.1563,197.6875 1896.7188,197.9844 L1896.7188,200.7031 Q1896.0938,200.125 1895.5,199.8594 Q1894.9063,199.5781 1894.2813,199.5781 Q1892.9375,199.5781 1892.25,200.6563 Q1891.5625,201.7188 1891.5625,203.8125 Q1891.5625,205.9063 1892.25,206.9844 Q1892.9375,208.0469 1894.2813,208.0469 Q1894.9063,208.0469 1895.5,207.7813 Q1896.0938,207.5 1896.7188,206.9219 L1896.7188,209.6406 Z " fill="#000000"/><text fill="#000000" font-family="sans-serif" font-size="14" lengthAdjust="spacing" textLength="114" x="1914.25" y="208.8467">PolicyCalculation</text><line style="stroke:#181818;stroke-width:0.5;" x1="1646.5" x2="2263.5" y1="220" y2="220"/><line style="stroke:#181818;stroke-width:0.5;" x1="1646.5" x2="2263.5" y1="228" y2="228"/><ellipse cx="1656.5" cy="241.6484" fill="#84BE84" rx="3" ry="3" style="stroke:#038048;stroke-width:1.0;"/><text fill="#000000" font-family="sans-serif" font-size="14" lengthAdjust="spacing" textLength="287" x="1665.5" y="244.9951">get_base_policy_limit(car: Car) -&gt; Decimal</text><ellipse cx="1656.5" cy="257.9453" fill="#84BE84" rx="3" ry="3" style="stroke:#038048;stroke-width:1.0;"/><text fill="#000000" font-family="sans-serif" font-size="14" lengthAdjust="spacing" textLength="414" x="1665.5" y="261.292">get_deductible_value(base_policy_limit: Decimal) -&gt; Decimal</text><ellipse cx="1656.5" cy="274.2422" fill="#84BE84" rx="3" ry="3" style="stroke:#038048;stroke-width:1.0;"/><text fill="#000000" font-family="sans-serif" font-size="14" lengthAdjust="spacing" textLength="593" x="1665.5" y="277.5889">get_final_policy_limit(base_policy_limit: Decimal, deductible_value: Decimal) -&gt; Decimal</text><ellipse cx="1656.5" cy="290.5391" fill="#84BE84" rx="3" ry="3" style="stroke:#038048;stroke-width:1.0;"/><text fill="#000000" font-family="sans-serif" font-size="14" lengthAdjust="spacing" textLength="183" x="1665.5" y="293.8857">execute(car: Car) -&gt; Policy</text></g><!--class GetInsurance--><g id="elem_GetInsurance"><rect codeLine="108" fill="#F1F1F1" height="129.4844" id="GetInsurance" rx="2.5" ry="2.5" style="stroke:#181818;stroke-width:0.5;" width="1181" x="2299.5" y="180"/><ellipse cx="2839.25" cy="196" fill="#ADD1B2" rx="11" ry="11" style="stroke:#181818;stroke-width:1.0;"/><path d="M2842.2188,201.6406 Q2841.6406,201.9375 2841,202.0781 Q2840.3594,202.2344 2839.6563,202.2344 Q2837.1563,202.2344 2835.8281,200.5938 Q2834.5156,198.9375 2834.5156,195.8125 Q2834.5156,192.6875 2835.8281,191.0313 Q2837.1563,189.375 2839.6563,189.375 Q2840.3594,189.375 2841,189.5313 Q2841.6563,189.6875 2842.2188,189.9844 L2842.2188,192.7031 Q2841.5938,192.125 2841,191.8594 Q2840.4063,191.5781 2839.7813,191.5781 Q2838.4375,191.5781 2837.75,192.6563 Q2837.0625,193.7188 2837.0625,195.8125 Q2837.0625,197.9063 2837.75,198.9844 Q2838.4375,200.0469 2839.7813,200.0469 Q2840.4063,200.0469 2841,199.7813 Q2841.5938,199.5 2842.2188,198.9219 L2842.2188,201.6406 Z " fill="#000000"/><text fill="#000000" font-family="sans-serif" font-size="14" lengthAdjust="spacing" textLength="93" x="2859.75" y="200.8467">GetInsurance</text><line style="stroke:#181818;stroke-width:0.5;" x1="2300.5" x2="3479.5" y1="212" y2="212"/><ellipse cx="2310.5" cy="225.6484" fill="none" rx="3" ry="3" style="stroke:#038048;stroke-width:1.0;"/><text fill="#000000" font-family="sans-serif" font-size="14" lengthAdjust="spacing" text-decoration="underline" textLength="406" x="2319.5" y="228.9951">dynamic_rate_calculation: DynamicRateCalculationInterface</text><ellipse cx="2310.5" cy="241.9453" fill="none" rx="3" ry="3" style="stroke:#038048;stroke-width:1.0;"/><text fill="#000000" font-family="sans-serif" font-size="14" lengthAdjust="spacing" text-decoration="underline" textLength="346" x="2319.5" y="245.292">premium_calculation: PremiumCalculationInterface</text><ellipse cx="2310.5" cy="258.2422" fill="none" rx="3" ry="3" style="stroke:#038048;stroke-width:1.0;"/><text fill="#000000" font-family="sans-serif" font-size="14" lengthAdjust="spacing" text-decoration="underline" textLength="302" x="2319.5" y="261.5889">policy_calculation: PolicyCalculationInterface</text><line style="stroke:#181818;stroke-width:0.5;" x1="2300.5" x2="3479.5" y1="268.8906" y2="268.8906"/><ellipse cx="2310.5" cy="282.5391" fill="#84BE84" rx="3" ry="3" style="stroke:#038048;stroke-width:1.0;"/><text fill="#000000" font-family="sans-serif" font-size="14" lengthAdjust="spacing" textLength="1155" x="2319.5" y="285.8857">build_entity(input_dto: InsuranceInputDto, applied_rate: Decimal, policy_limit: Decimal, calculated_premium: Decimal, deductible_value: Decimal) -&gt; InsuranceOutputDto</text><ellipse cx="2310.5" cy="298.8359" fill="#84BE84" rx="3" ry="3" style="stroke:#038048;stroke-width:1.0;"/><text fill="#000000" font-family="sans-serif" font-size="14" lengthAdjust="spacing" textLength="271" x="2319.5" y="302.1826">execute(id: str) -&gt; InsuranceOutputDto</text></g><!--link Car to InsuranceInputDto--><g id="link_Car_InsuranceInputDto"><path codeLine="42" d="M1544.15,419.3 C1635.64,389.67 1760.29,354.29 1873.5,339 C2019.73,319.25 2395.64,298.4 2537.5,339 C2586.57,353.04 2630.4571,379.1455 2668.0371,406.3055 " fill="none" id="Car-to-InsuranceInputDto" style="stroke:#181818;stroke-width:1.0;"/><polygon fill="#181818" points="2672.9,409.82,2667.9487,401.3062,2668.8476,406.8912,2663.2626,407.7901,2672.9,409.82" style="stroke:#181818;stroke-width:1.0;"/></g><!--link Address to InsuranceInputDto--><g id="link_Address_InsuranceInputDto"><path codeLine="43" d="M2537.71,466.5 C2549.41,466.5 2555.12,466.5 2566.82,466.5 " fill="none" id="Address-to-InsuranceInputDto" style="stroke:#181818;stroke-width:1.0;"/><polygon fill="#181818" points="2572.82,466.5,2563.82,462.5,2567.82,466.5,2563.82,470.5,2572.82,466.5" style="stroke:#181818;stroke-width:1.0;"/></g><!--link Car to InsuranceOutputDto--><g id="link_Car_InsuranceOutputDto"><path codeLine="44" d="M1544.06,466.5 C1654.03,466.5 1758.01,466.5 1867.98,466.5 " fill="none" id="Car-to-InsuranceOutputDto" style="stroke:#181818;stroke-width:1.0;"/><polygon fill="#181818" points="1873.98,466.5,1864.98,462.5,1868.98,466.5,1864.98,470.5,1873.98,466.5" style="stroke:#181818;stroke-width:1.0;"/></g><!--reverse link DynamicRateCalculationInterface to DynamicRateCalculation--><g id="link_DynamicRateCalculationInterface_DynamicRateCalculation"><path codeLine="63" d="M373.9531,130.1052 C406.4631,151.6552 428.6,166.33 461.1,187.88 " fill="none" id="DynamicRateCalculationInterface-backto-DynamicRateCalculation" style="stroke:#181818;stroke-width:1.0;stroke-dasharray:7.0,7.0;"/><polygon fill="none" points="358.95,120.16,370.6381,135.1062,377.2682,125.1041,358.95,120.16" style="stroke:#181818;stroke-width:1.0;"/></g><!--link DynamicRateCalculationInterface to Car--><g id="link_DynamicRateCalculationInterface_Car"><path codeLine="64" d="M251.05,120.23 C231.67,175.04 214.23,257.73 259,309 C325.14,384.74 974.8175,436.6385 1263.9775,456.2385 " fill="none" id="DynamicRateCalculationInterface-to-Car" style="stroke:#181818;stroke-width:1.0;"/><polygon fill="none" points="1275.95,457.05,1270.2342,452.6534,1263.9775,456.2385,1269.6932,460.6351,1275.95,457.05" style="stroke:#181818;stroke-width:1.0;"/></g><!--link DynamicRateCalculation to Car--><g id="link_DynamicRateCalculation_Car"><path codeLine="65" d="M763.28,301.02 C924.56,342.03 1127.3801,393.6226 1264.1901,428.4126 " fill="none" id="DynamicRateCalculation-to-Car" style="stroke:#181818;stroke-width:1.0;"/><polygon fill="none" points="1275.82,431.37,1270.9909,426.0147,1264.1901,428.4126,1269.0193,433.7679,1275.82,431.37" style="stroke:#181818;stroke-width:1.0;"/></g><!--reverse link PremiumCalculationInterface to PremiumCalculation--><g id="link_PremiumCalculationInterface_PremiumCalculation"><path codeLine="82" d="M1019.4594,128.8027 C1058.8294,150.3527 1088.02,166.33 1127.39,187.88 " fill="none" id="PremiumCalculationInterface-backto-PremiumCalculation" style="stroke:#181818;stroke-width:1.0;stroke-dasharray:7.0,7.0;"/><polygon fill="none" points="1003.67,120.16,1016.5785,134.0658,1022.3403,123.5395,1003.67,120.16" style="stroke:#181818;stroke-width:1.0;"/></g><!--link PremiumCalculationInterface to Car--><g id="link_PremiumCalculationInterface_Car"><path codeLine="83" d="M884.67,120.07 C871.59,173.79 861.98,254.79 902,309 C946.74,369.6 1129.218,414.2729 1264.108,440.3429 " fill="none" id="PremiumCalculationInterface-to-Car" style="stroke:#181818;stroke-width:1.0;"/><polygon fill="none" points="1275.89,442.62,1270.758,437.5541,1264.108,440.3429,1269.24,445.4088,1275.89,442.62" style="stroke:#181818;stroke-width:1.0;"/></g><!--link PremiumCalculation to Car--><g id="link_PremiumCalculation_Car"><path codeLine="84" d="M1274.67,301.02 C1299.91,331.69 1323.7454,360.6637 1349.9854,392.5537 " fill="none" id="PremiumCalculation-to-Car" style="stroke:#181818;stroke-width:1.0;"/><polygon fill="none" points="1357.61,401.82,1356.8865,394.6453,1349.9854,392.5537,1350.7089,399.7284,1357.61,401.82" style="stroke:#181818;stroke-width:1.0;"/></g><!--reverse link PolicyCalculationInterface to PolicyCalculation--><g id="link_PolicyCalculationInterface_PolicyCalculation"><path codeLine="102" d="M1842.4229,132.7821 C1864.3329,154.3321 1876.54,166.33 1898.45,187.88 " fill="none" id="PolicyCalculationInterface-backto-PolicyCalculation" style="stroke:#181818;stroke-width:1.0;stroke-dasharray:7.0,7.0;"/><polygon fill="none" points="1829.59,120.16,1838.2156,137.0597,1846.6303,128.5044,1829.59,120.16" style="stroke:#181818;stroke-width:1.0;"/></g><!--link PolicyCalculationInterface to Car--><g id="link_PolicyCalculationInterface_Car"><path codeLine="103" d="M1691.67,120.24 C1669.44,137.78 1646.43,158.28 1628,180 C1585.52,230.07 1594.68,255.94 1556,309 C1532.25,341.58 1510.7698,366.0411 1484.2598,393.3411 " fill="none" id="PolicyCalculationInterface-to-Car" style="stroke:#181818;stroke-width:1.0;"/><polygon fill="none" points="1475.9,401.95,1482.9495,400.4321,1484.2598,393.3411,1477.2103,394.8589,1475.9,401.95" style="stroke:#181818;stroke-width:1.0;"/></g><!--link PolicyCalculation to Car--><g id="link_PolicyCalculation_Car"><path codeLine="104" d="M1817.47,301.02 C1733.75,334.81 1638.418,373.2992 1555.308,406.8392 " fill="none" id="PolicyCalculation-to-Car" style="stroke:#181818;stroke-width:1.0;"/><polygon fill="none" points="1544.18,411.33,1551.2409,412.7939,1555.308,406.8392,1548.2471,405.3752,1544.18,411.33" style="stroke:#181818;stroke-width:1.0;"/></g><!--link GetInsurance to InsuranceInputDto--><g id="link_GetInsurance_InsuranceInputDto"><path codeLine="117" d="M2847.19,309.13 C2825.76,340.99 2806.7576,369.233 2786.1276,399.903 " fill="none" id="GetInsurance-to-InsuranceInputDto" style="stroke:#181818;stroke-width:1.0;"/><polygon fill="none" points="2779.43,409.86,2786.0978,407.114,2786.1276,399.903,2779.4598,402.649,2779.43,409.86" style="stroke:#181818;stroke-width:1.0;"/></g><!--link GetInsurance to InsuranceOutputDto--><g id="link_GetInsurance_InsuranceOutputDto"><path codeLine="118" d="M2525.26,309.08 C2439.99,326.35 2349.89,346.56 2267,369 C2212.09,383.86 2163.6308,399.9157 2113.5708,417.9357 " fill="none" id="GetInsurance-to-InsuranceOutputDto" style="stroke:#181818;stroke-width:1.0;"/><polygon fill="none" points="2102.28,422,2109.2802,423.7314,2113.5708,417.9357,2106.5706,416.2043,2102.28,422" style="stroke:#181818;stroke-width:1.0;"/></g><!--SRC=[xLTBRnCn4Bxlh_2D8D8U4AS8aAe6eLm08VLiEVOaiUfThxnUH6Zxt_4ZSRrhUxSHHtfACY_FVFEDFNc3lZIQwsDLWVj4Dumfw3hqK27qiECWs1DwHsMZrN65RcLllzo8za3UnmP_U4ibWnNgj8hbdIOwbL9pKCPK0UX4t03V7xPI7QHaYPBuP77JrrjGHJMLTIkWDXKw4_I8lia6AcjQWpv8Q_kB2CvCijZMiJ2_Uf_tMtJrsSLz2X3T4ZM4foRtQP6rYICIwH68oPCtEXQUJbi3vJKHmxoi0wxxJkCjO9VaWZbCJGoNcutrdDkcwNf56WgRfktrMijH8-tf9lzOne3rLFEj0Do2eYOGsKVPH9PR9Uz1uHtarGhst9HBD9SD5fAwBwl0A8yw-kJ1pwJylTUvdBdf-ztTPlrXhX3Ije83myhXaqcmbOBJ8nQyvZfhG8cWlJ3k3BSAQjxNMRC8iL7hJ5MM7QOjIIEgCmvPvTWhO55LRz1T1uYI3ZhxOtriICtfJvFbxIbT0tDbQ01gHoWK33P1_p3WLoZPmMOPW2tb5cU07SSY3AOS7HYNUYu6vmOebyEeGLwC2h-1zhfmlEaB5SI0dmVdVyLaZYeV7w-lIuIRyxswacv02uYVrORHF_oevTcSAajCteEv8ysKd4StLBr4sPkXY9eD58quunsrxzuY3lwoA3lU417ooVelKUQeoplxaXh34AIOla9vCPHJn7Hpaw7rbCzv83BD2RDYXyMzOOLP6UlcHoLw4USlgL4t_TMMnBced_7vvKY3plxBtUSHYYPXZDWhK6EW9aZbQPuGSi8Za3p1FURuLz1X4JerAXRv7jc_5fpQRSm_CFx9fSyXLtERq23AwJ8P1fYOrw6pxyNGjuZ2SC7Vzbmmx7VX1RVx86PQhj8TiN0lBL612HFBx1nDCcjeZZ6SFVz5ohWOyWpQPbkSRhvbasW7_Wi0]--></g></svg>